HIERARCHY
ROOT Hips
{
    OFFSET 0.000000 0.000000 0.000000
    CHANNELS 6 Xposition Yposition Zposition Zrotation Xrotation Yrotation
    JOINT Spine
    {
        OFFSET -0.000000 14.517291 0.000000
        CHANNELS 3 Zrotation Xrotation Yrotation
        JOINT Spine1
        {
            OFFSET -0.000000 37.558300 0.000000
            CHANNELS 3 Zrotation Xrotation Yrotation
            JOINT Neck
            {
                OFFSET -0.000000 37.404057 3.400369
                CHANNELS 3 Zrotation Xrotation Yrotation
                JOINT Head
                {
                    OFFSET -0.000000 24.785618 -3.540803
                    CHANNELS 3 Zrotation Xrotation Yrotation
                    End Site
                    {
                        OFFSET -0.000000 35.408028 0.000000
                    }
                }
            }
            JOINT LeftShoulder
            {
                OFFSET 6.992933 33.973492 -0.192664
                CHANNELS 3 Zrotation Xrotation Yrotation
                JOINT LeftArm
                {
                    OFFSET 21.527611 0.000000 0.000000
                    CHANNELS 3 Zrotation Xrotation Yrotation
                    JOINT LeftForeArm
                    {
                        OFFSET 56.353916 0.000000 0.000000
                        CHANNELS 3 Zrotation Xrotation Yrotation
                        JOINT LeftHand
                        {
                            OFFSET 47.774071 0.000000 0.000000
                            CHANNELS 3 Zrotation Xrotation Yrotation
                            End Site
                            {
                                OFFSET 26.556021 0.000000 0.000000
                            }
                        }
                    }
                }
            }
            JOINT RightShoulder
            {
                OFFSET -7.065357 33.973492 -0.192664
                CHANNELS 3 Zrotation Xrotation Yrotation
                JOINT RightArm
                {
                    OFFSET -21.527611 0.000000 0.000000
                    CHANNELS 3 Zrotation Xrotation Yrotation
                    JOINT RightForeArm
                    {
                        OFFSET -56.353916 0.000000 0.000000
                        CHANNELS 3 Zrotation Xrotation Yrotation
                        JOINT RightHand
                        {
                            OFFSET -47.774071 0.000000 0.000000
                            CHANNELS 3 Zrotation Xrotation Yrotation
                            End Site
                            {
                                OFFSET -26.556021 0.000000 0.000000
                            }
                        }
                    }
                }
            }
        }
    }
    JOINT LeftUpLeg
    {
        OFFSET 17.704014 0.000000 0.000000
        CHANNELS 3 Zrotation Xrotation Yrotation
        JOINT LeftLeg
        {
            OFFSET -0.000000 -81.181816 0.000000
            CHANNELS 3 Zrotation Xrotation Yrotation
            JOINT LeftFoot
            {
                OFFSET -0.000000 -62.821102 0.000000
                CHANNELS 3 Zrotation Xrotation Yrotation
                JOINT LeftToeBase
                {
                    OFFSET -0.000000 -11.507608 26.556021
                    CHANNELS 3 Zrotation Xrotation Yrotation
                    End Site
                    {
                        OFFSET -0.000000 0.000000 7.081605
                    }
                }
            }
        }
    }
    JOINT RightUpLeg
    {
        OFFSET -17.704014 0.000000 0.000000
        CHANNELS 3 Zrotation Xrotation Yrotation
        JOINT RightLeg
        {
            OFFSET -0.000000 -81.181816 0.000000
            CHANNELS 3 Zrotation Xrotation Yrotation
            JOINT RightFoot
            {
                OFFSET -0.000000 -62.821102 0.000000
                CHANNELS 3 Zrotation Xrotation Yrotation
                JOINT RightToeBase
                {
                    OFFSET -0.000000 -11.507608 26.556021
                    CHANNELS 3 Zrotation Xrotation Yrotation
                    End Site
                    {
                        OFFSET -0.000000 0.000000 7.081605
                    }
                }
            }
        }
    }
}
MOTION
Frames:    8
Frame Time:    0.008333
35.817104    151.164383    -95.360542    10.252449    1.662190    30.838583    4.628284    -7.874370    -11.902066    10.435799    1.810593    -4.240613    23.469608    -14.664790    0.433827    1.947301    25.925760    -6.332664    17.660124    -1.073035    -33.606674    -17.952490    19.575254    -83.673622    -8.979751    -15.153626    -78.260323    15.220593    -22.591906    -4.019092    -11.432012    -15.035993    -6.662882    26.143051    -30.995192    71.143654    -2.539300    -13.866495    24.834930    -2.893734    -14.051483    29.048042    -5.405057    8.861901    4.971326    -10.837233    33.366920    -18.510193    10.057672    -29.559752    44.155407    0.000000    0.000000    0.000000    -34.696140    -21.637571    0.630961    11.483265    35.354488    -11.889656    7.849370    -0.715671    -22.046051    0.000000    0.000000    0.000000    
35.845490    151.160950    -95.364128    10.222986    1.657094    30.798910    4.634127    -7.867152    -11.900564    10.448962    1.840379    -4.243071    23.434519    -14.642631    0.417180    1.961758    25.933926    -6.336779    17.635944    -1.080542    -33.593796    -17.963839    19.565567    -83.645790    -9.020366    -15.089090    -78.254181    15.196656    -22.560907    -4.029828    -11.433471    -14.986328    -6.650538    26.150734    -31.003571    71.128899    -2.538984    -13.800408    24.808464    -2.932539    -13.996804    29.082739    -5.400192    8.839698    5.003131    -10.836076    33.398285    -18.478964    10.036213    -29.586948    44.167400    0.000000    0.000000    0.000000    -34.664162    -21.682428    0.628794    11.476801    35.363045    -11.893124    7.778436    -0.645899    -22.009687    0.000000    0.000000    0.000000    
35.870758    151.157074    -95.366280    10.187668    1.659945    30.766115    4.632774    -7.878981    -11.900840    10.453609    1.874575    -4.246536    23.447392    -14.627802    0.423129    1.926776    25.974884    -6.328815    17.624969    -1.076342    -33.597973    -17.976385    19.546953    -83.614334    -9.063957    -15.032216    -78.243042    15.242315    -22.535000    -3.990824    -11.425673    -14.932687    -6.633154    26.141590    -31.001501    71.104919    -2.553041    -13.738889    24.773397    -2.934139    -13.933771    29.092398    -5.384303    8.809846    5.024714    -10.848516    33.429832    -18.452456    10.036769    -29.604353    44.161007    0.000000    0.000000    0.000000    -34.640514    -21.727308    0.610380    11.472384    35.374538    -11.843701    7.747087    -0.611498    -22.011446    0.000000    0.000000    0.000000    
35.893196    151.160370    -95.369080    10.159241    1.656436    30.734661    4.634624    -7.873655    -11.905833    10.444530    1.893154    -4.249737    23.453423    -14.600861    0.428608    1.899209    26.018555    -6.317564    17.613909    -1.061260    -33.604706    -17.975685    19.529953    -83.570801    -9.103361    -14.985962    -78.246414    15.294047    -22.517628    -3.950046    -11.415525    -14.875472    -6.606967    26.143141    -31.005014    71.082405    -2.551112    -13.657142    24.756851    -2.950459    -13.857609    29.115019    -5.372737    8.780720    5.046383    -10.854137    33.469204    -18.440323    10.001808    -29.629738    44.187126    0.000000    0.000000    0.000000    -34.613850    -21.759403    0.593212    11.466679    35.369225    -11.827440    7.681185    -0.545212    -21.992037    0.000000    0.000000    0.000000    
35.912937    151.164764    -95.370186    10.127311    1.660217    30.707888    4.624012    -7.884818    -11.915808    10.434976    1.929450    -4.256151    23.454466    -14.563646    0.434994    1.886905    26.027094    -6.302541    17.623278    -1.053411    -33.601208    -17.972897    19.521780    -83.547150    -9.128947    -14.975647    -78.238152    15.317081    -22.525240    -3.936974    -11.390851    -14.825202    -6.573267    26.129723    -31.019251    71.054626    -2.608269    -13.467514    24.671631    -2.740370    -13.603927    29.077852    -5.355838    8.745646    5.039983    -10.877322    33.503811    -18.415154    9.986515    -29.649599    44.212784    0.000000    0.000000    0.000000    -34.582794    -21.792784    0.553301    11.437026    35.366077    -11.774388    7.620742    -0.494655    -21.983208    0.000000    0.000000    0.000000    
35.926582    151.177338    -95.375801    10.094985    1.661888    30.676052    4.598094    -7.878202    -11.910110    10.462229    1.958470    -4.256715    23.444443    -14.540680    0.442799    1.855506    26.021429    -6.283749    17.599257    -1.054990    -33.585575    -17.955914    19.524158    -83.548424    -9.145137    -14.972715    -78.209778    15.287283    -22.532436    -3.954452    -11.413038    -14.799768    -6.560798    26.119137    -31.024706    71.010124    -2.556697    -13.356523    24.665186    -2.839880    -13.530085    29.111197    -5.337718    8.705274    5.051080    -10.891029    33.540604    -18.392981    9.950565    -29.652224    44.228783    0.000000    0.000000    0.000000    -34.540165    -21.828928    0.550508    11.410191    35.350403    -11.755212    7.565454    -0.423048    -21.958229    0.000000    0.000000    0.000000    
35.941566    151.191040    -95.380760    10.063412    1.666030    30.648613    4.573038    -7.880254    -11.903532    10.479987    1.984790    -4.256732    23.425817    -14.513157    0.453218    1.840964    26.027901    -6.260595    17.567665    -1.049321    -33.591099    -17.930058    19.531084    -83.529907    -9.178541    -14.986761    -78.205498    15.326295    -22.571014    -3.946472    -11.435479    -14.771984    -6.539322    26.051712    -30.998499    70.923729    -2.550344    -13.256904    24.661976    -2.895010    -13.447164    29.158192    -5.323675    8.666499    5.065236    -10.898380    33.574097    -18.386593    9.916829    -29.660130    44.244534    0.000000    0.000000    0.000000    -34.498787    -21.862562    0.549958    11.383371    35.338524    -11.698437    7.494037    -0.363395    -21.979618    0.000000    0.000000    0.000000    
35.948608    151.207336    -95.382782    10.032134    1.665834    30.621656    4.542402    -7.885408    -11.888115    10.489086    2.022769    -4.254673    23.401875    -14.506102    0.467267    1.853656    26.055002    -6.239247    17.559759    -1.053814    -33.593369    -17.916187    19.551003    -83.522720    -9.181474    -15.012177    -78.184471    15.293069    -22.598436    -3.983617    -11.456700    -14.775291    -6.517234    26.028341    -30.997692    70.839149    -2.479169    -13.095591    24.659565    -2.901477    -13.303307    29.177084    -5.303988    8.637179    5.062203    -10.918959    33.590908    -18.348005    9.881490    -29.662491    44.252979    0.000000    0.000000    0.000000    -34.444973    -21.889359    0.567049    11.353901    35.310997    -11.643127    7.422499    -0.302562    -22.009142    0.000000    0.000000    0.000000    
